<?xml version="1.0" encoding="UTF-8" standalone="no"?>
<svg
   version="1.1"
   width="1000"
   height="1000"
   id="svg13"
   sodipodi:docname="favicon.svg"
   inkscape:version="1.3.2 (091e20e, 2023-11-25, custom)"
   xmlns:inkscape="http://www.inkscape.org/namespaces/inkscape"
   xmlns:sodipodi="http://sodipodi.sourceforge.net/DTD/sodipodi-0.dtd"
   xmlns="http://www.w3.org/2000/svg"
   xmlns:svg="http://www.w3.org/2000/svg">
  <defs
     id="defs13" />
  <sodipodi:namedview
     id="namedview13"
     pagecolor="#505050"
     bordercolor="#eeeeee"
     borderopacity="1"
     inkscape:showpageshadow="0"
     inkscape:pageopacity="0"
     inkscape:pagecheckerboard="0"
     inkscape:deskcolor="#505050"
     inkscape:zoom="0.14513367"
     inkscape:cx="82.682401"
     inkscape:cy="740.69651"
     inkscape:window-width="1920"
     inkscape:window-height="1017"
     inkscape:window-x="-8"
     inkscape:window-y="-8"
     inkscape:window-maximized="1"
     inkscape:current-layer="svg13" />
  <g
     id="g14"
     transform="translate(2294.4365,1267.7968)">
    <rect
       width="1000"
       height="1000"
       rx="500"
       ry="500"
       fill="#ffffff"
       id="rect1"
       x="-2294.4365"
       y="-1267.7968" />
    <g
       id="g13"
       transform="matrix(0.78125,0,0,0.78125,-1312.576,-1136.1237)">
      <path
         d="m -953.36979,825.76407 c 39.1,25.7 166.1,114.6 488.5,-229.7 322.4,-344.3 223,-425.9 196.2,-454.9 -26.8,-29 -263.6,-149.6000018 -556,122.5 -282.50001,262.8 -128.7,562.1 -128.7,562.1 z"
         fill="#eaad6a"
         id="path1" />
      <path
         d="m -886.86979,655.96407 c 0,0 26.7,26.1 48.6,4.5 21.9,-21.7 -2.2,-40.2 -2.2,-40.2 l -116.7,-146.8 -27.3,67.4 z m 381.4,-373 c 0,0 26.7,26.1 48.6,4.5 21.9,-21.7 -2.2,-40.2 -2.2,-40.2 l -103.8,-133.9 -62.1,19.2 z m -236.8,140.3 c 0,0 26.7,26.1 48.6,4.5 21.9,-21.7 -2.2,-40.2 -2.2,-40.2 l -110.5,-140.6 -41.6,44.5 z"
         fill="#ffc661"
         id="path2" />
      <path
         d="m -523.96979,536.86407 c -227.5,243 -389.5,280.3 -455.1,229.3 10.4,34.3 20.7,54.5 20.7,54.5 39.1,25.7 166.1,114.6 488.5,-229.7 322.4,-344.3 223,-425.9 196.2,-454.9 -6.1,-6.6 -22.9,-17.8 -48.6,-28.1 36.5,54.7 15.2,197.1 -201.7,428.9 z"
         fill="#d19152"
         id="path3" />
      <path
         d="m -818.26979,240.46407 c -4.3,4 -8.6,8.1 -12.9,12.4 -0.7,0.7 -1.5,1.4 -2.2,2.1 -0.4,0.4 -0.7,0.8 -1.1,1.1 -3.8,3.8 -7.7,7.9 -11.7,12.2 -183.10001,193.9 -212.50001,464 -112.4,564.1 90.5,90.5 259.8,16.9 489.7,-213 229.8,-229.8 303.5,-399.2 213,-489.7 -99.8,-99.800002 -368.7,-70.900002 -562.4,110.8 z m 349.1,7.6 c 3.5,3.1 5.5,7.4 5.6,12 0.2,4.7 -1.6,9.1 -4.9,12.4 -6.3,6.3 -16.3,6.6 -23,0.7 l -2.8,-2.4 c -37,-32.7 -69.3,-70.4 -95.9,-112 l -14.3,-22.3 c 1.2,-0.5 2.5,-0.9 3.7,-1.4 8.8,-3.4 17.6,-6.6 26.3,-9.4 0.4,-0.1 0.7,-0.2 1.1,-0.4 l 3.4,5.3 c 28.1,43.6 61.9,83.2 100.8,117.5 z m -225,154.5 c 3.5,3.1 5.5,7.4 5.6,12 0.2,4.7 -1.6,9.1 -4.9,12.4 -6.3,6.3 -16.3,6.6 -23,0.7 l -2.8,-2.4 c -37,-32.7 -69.3,-70.4 -95.9,-112 l -14.9,-23.4 c 6.7,-7.2 13.6,-14.3 20.7,-21.2 0.8,-0.8 1.7,-1.6 2.5,-2.4 l 11.9,18.7 c 28.1,43.6 61.9,83.2 100.8,117.6 z m -154.5,225 c 3.5,3.1 5.5,7.4 5.6,12 0.2,4.7 -1.6,9.1 -4.9,12.4 -6.3,6.3 -16.3,6.6 -23,0.7 l -2.8,-2.4 c -37,-32.7 -69.3,-70.4 -95.8,-112 l -0.4,-0.6 c 3.7,-13.1 7.9,-26.5 12.8,-39.9 l 7.8,12.2 c 28,43.6 61.9,83.2 100.7,117.6 z m 361,-27 c -124.2,124.2 -348,317 -452,213 -47.2,-47.2 -60.40001,-139.1 -38.7,-241.5 25.2,35.9 54.2,69 87.2,98.1 l 2.8,2.4 c 17.1,15.1 43.2,14.3 59.4,-1.8 8.4,-8.4 13.1,-20.1 12.7,-32 -0.4,-11.9 -5.7,-23.3 -14.6,-31.2 -37,-32.7 -69.3,-70.4 -95.9,-112 l -18.1,-28.3 c 23,-54 55.2,-107.7 96.7,-156.7 l 10.9,17 c 27.9,43.7 61.8,83.3 100.6,117.6 l 2.8,2.4 c 17.1,15.1 43.2,14.4 59.4,-1.8 8.4,-8.4 13.1,-20.1 12.7,-32 -0.4,-11.9 -5.7,-23.3 -14.6,-31.2 -37,-32.7 -69.3,-70.4 -95.9,-112 l -14.5,-22.7 c 49,-43.2 103.1,-76.9 157.6,-101.2 l 16.8,26.3 c 27.9,43.7 61.8,83.3 100.6,117.6 l 2.8,2.4 c 17.1,15.1 43.2,14.3 59.4,-1.8 8.4,-8.4 13.1,-20.1 12.7,-32 -0.4,-11.9 -5.7,-23.3 -14.6,-31.2 -36.7,-32.4 -68.6,-69.8 -95.1,-110.9 114.4,-31.400002 220.1,-20.600002 272,31.3 103.9,104.2 -88.9,328 -213.1,452.2 z"
         fill="#004364"
         id="path4" />
      <path
         d="m -666.76979,217.26407 m -15.4,0 a 15.4,15.4 0 1 0 30.8,0 15.4,15.4 0 1 0 -30.8,0 z"
         fill="#004364"
         id="path5" />
      <path
         d="m -442.06979,147.66407 m -15.4,0 a 15.4,15.4 0 1 0 30.8,0 15.4,15.4 0 1 0 -30.8,0 z"
         fill="#004364"
         id="path6" />
      <path
         d="m -447.76979,479.66407 m -15.4,0 a 15.4,15.4 0 1 0 30.8,0 15.4,15.4 0 1 0 -30.8,0 z"
         fill="#004364"
         id="path7" />
      <path
         d="m -521.76979,560.76407 m -15.4,0 a 15.4,15.4 0 1 0 30.8,0 15.4,15.4 0 1 0 -30.8,0 z"
         fill="#004364"
         id="path8" />
      <path
         d="m -879.26979,417.26407 m -15.4,0 a 15.4,15.4 0 1 0 30.8,0 15.4,15.4 0 1 0 -30.8,0 z"
         fill="#004364"
         id="path9" />
      <path
         d="m -735.86979,252.16407 m -15.4,0 a 15.4,15.4 0 1 0 30.8,0 15.4,15.4 0 1 0 -30.8,0 z"
         fill="#004364"
         id="path10" />
      <path
         d="m -931.76979,717.76407 m -15.4,0 a 15.4,15.4 0 1 0 30.8,0 15.4,15.4 0 1 0 -30.8,0 z"
         fill="#004364"
         id="path11" />
    </g>
  </g>
</svg>
